HIERARCHY
ROOT Hips
{
	OFFSET -3.958830 18.904000 13.208200
	CHANNELS 6 Xposition Yposition Zposition Zrotation Yrotation Xrotation 
	JOINT LHipJoint
	{
		OFFSET 0.000000 0.000000 0.000000
		CHANNELS 3 Zrotation Yrotation Xrotation
		JOINT LeftUpLeg
		{
			OFFSET 1.800000 -1.400000 0.085000
			CHANNELS 3 Zrotation Yrotation Xrotation
			JOINT LeftLeg
			{
				OFFSET 2.215000 -6.000000 0.000000
				CHANNELS 3 Zrotation Yrotation Xrotation
				JOINT LeftFoot
				{
					OFFSET 2.500000 -6.900000 0.000000
					CHANNELS 3 Zrotation Yrotation Xrotation
					JOINT LeftToeBase
					{
						OFFSET 0.200000 -0.500000 1.950000
						CHANNELS 3 Zrotation Yrotation Xrotation
						End Site
						{
							OFFSET 0.000000 0.000000 0.000000
						}
					}
				}
			}
		}
	}
	JOINT RHipJoint
	{
		OFFSET 0.000000 0.000000 0.000000
		CHANNELS 3 Zrotation Yrotation Xrotation
		JOINT RightUpLeg
		{
			OFFSET -1.800000 -1.400000 0.085000
			CHANNELS 3 Zrotation Yrotation Xrotation
			JOINT RightLeg
			{
				OFFSET -2.215000 -6.000000 0.000000
				CHANNELS 3 Zrotation Yrotation Xrotation
				JOINT RightFoot
				{
					OFFSET -2.500000 -6.900000 0.000000
					CHANNELS 3 Zrotation Yrotation Xrotation
					JOINT RightToeBase
					{
						OFFSET -0.200000 -0.500000 1.950000
						CHANNELS 3 Zrotation Yrotation Xrotation
						End Site
						{
							OFFSET 0.000000 0.000000 0.000000
						}
					}
				}
			}
		}
	}
	JOINT LowerBack
	{
		OFFSET 0.000000 0.000000 0.000000
		CHANNELS 3 Zrotation Yrotation Xrotation
		JOINT Spine
		{
			OFFSET -0.087000 1.940000 -0.288900
			CHANNELS 3 Zrotation Yrotation Xrotation
			JOINT Spine1
			{
				OFFSET 0.000000 1.950000 0.060000
				CHANNELS 3 Zrotation Yrotation Xrotation
				JOINT Neck
				{
					OFFSET 0.000000 0.000000 0.000000
					CHANNELS 3 Zrotation Yrotation Xrotation
					JOINT Neck1
					{
						OFFSET 0.000000 1.600000 0.340000
						CHANNELS 3 Zrotation Yrotation Xrotation
						JOINT Head
						{
							OFFSET 0.000000 1.667000 -0.240000
							CHANNELS 3 Zrotation Yrotation Xrotation
							End Site
							{
								OFFSET 0.000000 0.000000 0.000000
							}
						}
					}
				}
				JOINT LeftShoulder
				{
					OFFSET 0.000000 0.000000 0.000000
					CHANNELS 3 Zrotation Yrotation Xrotation
					JOINT LeftArm
					{
						OFFSET 2.700000 1.550000 -0.730000
						CHANNELS 3 Zrotation Yrotation Xrotation
						JOINT LeftForeArm
						{
							OFFSET 5.450000 0.000000 0.000000
							CHANNELS 3 Zrotation Yrotation Xrotation
							JOINT LeftHand
							{
								OFFSET 3.450000 0.000000 0.000000
								CHANNELS 3 Zrotation Yrotation Xrotation
								JOINT LeftHandIndex1
								{
									OFFSET 0.750000 0.000000 0.000000
									CHANNELS 3 Zrotation Yrotation Xrotation
									End Site
									{
										OFFSET 0.000000 0.000000 0.000000
									}
								}
							}
						}
					}
				}
				JOINT RightShoulder
				{
					OFFSET 0.000000 0.000000 0.000000
					CHANNELS 3 Zrotation Yrotation Xrotation
					JOINT RightArm
					{
						OFFSET -2.700000 1.550000 -0.730000
						CHANNELS 3 Zrotation Yrotation Xrotation
						JOINT RightForeArm
						{
							OFFSET -5.450000 0.000000 0.000000
							CHANNELS 3 Zrotation Yrotation Xrotation
							JOINT RightHand
							{
								OFFSET -3.450000 0.000000 0.000000
								CHANNELS 3 Zrotation Yrotation Xrotation
								JOINT RightHandIndex1
								{
									OFFSET -0.750000 0.000000 0.000000
									CHANNELS 3 Zrotation Yrotation Xrotation
									End Site
									{
										OFFSET 0.000000 0.000000 0.000000
									}
								}
							}
						}
					}
				}
			}
		}
	}
}
MOTION
Frames: 14
Frame Time: 0.016667
-0.266160 21.264770 -15.259230 -56.357547 -78.177874 34.188961 -14.922876 8.523578 5.504106 5.988212 -22.862506 -41.249570 15.412428 12.723675 119.089875 4.502173 12.953592 -0.713716 3.572070 5.378720 2.820520 19.303216 -8.750618 3.903260 -1.972911 18.139134 -37.080209 -12.864821 -13.496123 102.231850 -4.896569 -11.599759 0.468791 1.313380 -4.609850 -1.346920 -5.497592 2.594053 -9.764893 13.164689 -33.671411 112.975723 -25.380451 -3.082725 18.890378 28.589084 1.046358 -20.557940 -63.921722 40.825955 84.306704 2.452560 -33.098730 -124.187630 1.533984 -56.535463 37.122857 -49.677215 -31.742048 -63.457732 176.183610 -61.661110 159.954623 -4.179956 0.180527 0.001760 -3.073930 2.182040 -1.814880 -61.481032 37.294520 9.870313 101.209864 51.985002 -54.747481 174.008757 53.812644 173.239906 6.224232 0.128361 3.621520 0.187660 -0.840890 -0.377370 
-0.285720 21.135500 -15.365880 -53.656165 -77.298655 33.156999 -14.675415 8.234784 5.314095 5.453188 -21.754670 -40.675572 16.836216 13.286082 122.127413 4.368020 13.278690 -0.850481 3.605870 5.260810 2.972890 19.548566 -8.801396 4.105913 -4.408758 19.281202 -39.002538 -8.252304 -18.820273 102.437204 -4.940578 -12.147146 0.268543 1.334380 -4.646020 -1.355170 -5.950274 3.598076 -9.908036 12.161538 -34.804137 112.657225 -25.186907 -1.534517 21.547514 28.885311 3.883811 -24.356446 -64.230861 42.206754 86.587844 3.552000 -34.957520 -124.791500 0.644556 -51.251573 41.465622 -41.693047 -41.479277 -68.757474 170.123684 -63.443719 175.306195 -5.360228 -1.306186 0.133100 -3.103730 2.160100 -1.918470 -63.161495 33.756961 9.805096 100.842345 53.897270 -59.554211 172.382018 56.775733 -171.654556 6.816861 1.031477 3.516580 0.198610 -0.829680 -0.466500 
-0.233600 20.974760 -15.451800 -54.799163 -76.887852 35.271118 -14.451118 8.209219 5.079682 4.759816 -20.354429 -39.592176 18.545166 13.279539 124.712031 4.359496 13.310104 -0.907965 3.727900 5.389720 3.035240 19.757742 -8.611954 4.366989 -7.398359 20.741194 -40.792897 -2.071547 -25.343468 101.728588 -5.141710 -13.010803 0.047617 1.442280 -4.701980 -1.364640 -6.091085 4.162197 -10.128841 11.964912 -35.602110 112.653572 -24.926383 -1.809655 22.878591 27.912368 5.587397 -26.484420 -66.753392 44.155272 86.148897 5.597380 -34.471830 -125.062880 3.013357 -47.543112 43.618024 -37.886865 -47.707098 -73.298337 165.485537 -63.445908 -172.283005 -5.724750 -2.654590 0.172130 -3.153000 2.205420 -1.912030 -65.010693 30.066486 10.637625 102.317411 56.611866 -63.079398 167.611717 59.483755 -155.385583 7.497456 2.667059 3.537260 0.179280 -0.902610 -0.445940 
-0.198360 20.876360 -15.585500 -46.363710 -76.727972 26.010905 -14.242942 8.630995 5.847017 2.617073 -20.010373 -36.442987 19.673869 13.653332 126.393215 4.436334 13.608165 -0.905950 3.634080 5.206140 2.947000 19.518996 -9.343179 5.658046 -12.457501 21.331138 -42.751999 5.407649 -32.319139 99.759963 -5.307760 -13.999038 -0.149729 1.406190 -4.641620 -1.362810 -8.310284 3.122575 -12.932828 13.229285 -36.391573 118.179376 -18.967238 -2.418563 19.798919 23.113585 4.762400 -32.193373 -70.188536 43.906038 85.127683 7.287530 -35.555210 -125.335260 12.466723 -37.091423 45.857540 -44.159374 -70.573058 -72.470413 176.497627 -68.802017 -168.371584 -7.440116 -6.182938 0.180760 -3.129330 2.126940 -1.903760 -65.809491 29.418299 13.482216 100.964235 53.813433 -70.992634 164.304813 60.174162 -143.422263 7.475293 4.081590 3.455250 0.200720 -0.853590 -0.460930 
-0.188310 20.782420 -15.704790 -28.253352 -76.741312 10.568074 -15.557043 8.291144 4.755067 0.284464 -19.881627 -34.583731 20.053532 15.310519 127.688865 4.252689 13.976254 -1.059805 3.495330 5.028220 2.872550 18.591081 -8.118954 5.057869 -20.432583 20.399838 -45.344636 14.856348 -39.710010 95.118223 -5.326817 -14.727598 -0.334239 1.451240 -4.580310 -1.420680 -7.004386 2.664701 -9.942597 11.801819 -34.098129 111.104959 -10.982205 1.484325 34.354884 19.105253 4.481161 -38.389123 -68.917676 43.487572 85.375051 9.005460 -37.597100 -126.043030 24.946071 -26.373878 75.997327 78.606614 -49.702431 147.640224 -159.271021 -61.814167 -152.941290 -10.507812 -10.295968 0.241300 -3.065280 2.027890 -2.004500 -71.115104 17.325910 17.421606 100.967552 59.625507 -84.442592 157.297137 62.938176 -117.573237 6.131081 7.500843 3.267320 0.273900 -0.751280 -0.513000 
-0.140750 20.686630 -15.942280 -13.699739 -78.396881 -4.217400 -16.172078 9.372260 4.451875 -1.085747 -17.689386 -31.321618 21.559912 15.670284 128.247240 4.435872 13.825034 -0.973160 3.642140 5.275910 2.824840 17.960872 -7.086387 5.443433 -24.570286 21.831165 -46.815326 20.959929 -43.216716 92.959991 -5.513659 -15.022930 -0.349393 1.556650 -4.593050 -1.440210 -6.112490 0.661489 -9.871317 15.221896 -30.354726 109.309347 -10.385408 1.120699 35.550938 18.761492 3.260019 -37.342070 -69.100103 42.089903 85.950413 14.468990 -36.902660 -127.517300 29.496396 -29.203769 74.555529 72.102845 -48.632424 145.505037 -155.212419 -61.322885 -138.408461 -8.703671 -12.508688 0.114670 -3.121620 2.063190 -1.861040 -73.453992 15.972411 16.990112 107.484572 57.035693 -92.412359 153.275845 67.210842 -92.519896 4.178539 9.935361 3.407860 0.294320 -0.835440 -0.382970 
-0.153730 20.678740 -16.212190 2.421471 -78.753699 -18.450292 -16.185468 10.427490 4.316298 -0.334643 -16.062734 -29.695887 20.292607 20.054434 128.112306 5.293173 13.855552 -0.648613 3.911900 5.695520 2.786580 17.958884 -6.011847 5.595464 -26.509064 22.882887 -49.075169 21.290833 -42.703061 94.143010 -5.847711 -15.047705 -0.113885 1.561420 -4.773600 -1.432810 -4.541527 -1.888569 -9.970557 18.466773 -25.311542 106.227024 -9.820546 -0.142104 38.540972 17.833677 1.852018 -36.170574 -66.898611 39.467396 86.860706 13.856620 -39.886280 -129.030520 34.862448 -30.324467 75.276850 67.333529 -43.291988 144.607411 -160.439974 -62.423499 -125.696307 -6.573037 -11.990672 -0.310680 -3.219300 2.161530 -1.494860 -75.859229 14.026403 18.031208 113.559343 60.444253 -96.288725 165.729174 74.062691 -67.800484 3.358506 9.740716 3.884720 0.225080 -1.048780 -0.208360 
-0.113060 20.632720 -16.489550 19.743451 -79.735231 -35.926493 -15.884107 10.984470 4.080335 0.838411 -13.097250 -25.435377 18.546220 26.302246 128.074528 5.611604 14.598753 -0.720727 3.884150 5.768800 2.648940 18.239060 -5.571919 5.785692 -27.611489 25.636515 -50.586855 20.975825 -42.098357 96.666208 -5.975390 -15.288035 -0.037695 1.598060 -4.728230 -1.494390 -3.312389 -3.532573 -9.977138 23.100383 -21.349591 105.741644 -9.303100 -0.201130 36.661085 16.728455 -1.746160 -32.201969 -66.773848 36.372320 86.967132 13.972170 -40.156770 -127.610680 42.920075 -32.546431 74.717875 64.920441 -42.007792 139.285806 -159.658963 -63.117471 -110.287769 -4.128487 -12.615084 -0.489820 -3.160780 2.119900 -1.364600 -78.177047 13.492388 20.366417 118.542513 60.656534 -101.104565 -162.963259 80.718494 -40.461317 4.604488 8.318558 3.938240 0.331040 -1.004340 -0.176930 
-0.071970 20.688280 -16.787570 30.191276 -79.526604 -46.586225 -15.575078 11.221277 4.111373 3.188737 -11.581020 -22.800304 15.463241 31.461884 125.893484 5.773671 15.524061 -0.856141 3.643310 5.504120 2.485450 18.478398 -5.610890 5.804524 -25.131194 28.234880 -49.937575 17.537233 -39.731165 100.533496 -5.881430 -15.431163 0.011744 1.515650 -4.633030 -1.523540 -2.088743 -5.488801 -10.005858 27.398892 -17.708093 106.871600 -6.119017 1.480398 32.872749 14.955036 -7.234633 -27.677952 -67.727823 32.181720 87.276893 11.332520 -41.177380 -125.014260 53.242323 -37.175909 72.633884 64.290516 -40.248120 129.195800 -162.372606 -64.392898 -91.655176 -1.600312 -11.304449 -0.611790 -2.986600 1.944120 -1.400910 -79.945527 15.002376 27.197450 118.527001 60.973041 -111.310385 -122.514360 81.440291 -16.815271 8.091406 6.644539 3.824390 0.332100 -0.867690 -0.266990 
-0.068790 20.742610 -17.065220 40.618417 -77.387940 -57.160062 -15.486560 11.275255 4.117857 4.527720 -10.265236 -18.599053 11.669481 36.474740 122.643581 6.071259 16.528185 -0.869479 3.254320 5.048220 2.170180 18.520360 -5.683958 5.888413 -25.382373 29.535067 -50.115618 16.149171 -38.229339 102.438957 -5.704340 -15.457308 0.099373 1.346090 -4.473630 -1.506400 -0.901351 -8.332225 -9.958569 34.056237 -14.839755 109.077687 0.308295 3.368687 26.711458 10.822474 -14.939399 -21.722069 -68.532741 27.031882 89.623335 9.357140 -41.429050 -123.254030 66.290643 -43.277776 64.425222 65.323621 -37.448435 122.123439 -170.845951 -66.190066 -77.742656 -0.682479 -8.825129 -0.726840 -2.778830 1.724340 -1.412100 -78.670055 28.570254 26.673429 108.455623 48.213846 -106.543458 -92.749785 49.063473 -8.346357 6.749439 4.423198 3.651520 0.288510 -0.713280 -0.344260 
-0.107780 20.862340 -17.241360 53.194940 -75.938147 -70.590167 -16.018079 11.508536 4.008689 5.669561 -6.892459 -11.060848 8.674612 39.363620 117.753018 6.308276 17.066758 -0.704987 2.691070 4.349950 1.751890 17.842750 -6.134273 6.281806 -27.080583 32.249823 -49.970931 19.480478 -38.086001 100.473944 -5.446285 -15.406705 0.204288 1.033580 -4.173080 -1.454700 0.073653 -9.389342 -9.977453 37.437923 -13.826986 114.742450 -11.076055 0.563133 22.207852 17.813822 -14.696881 -16.171996 -67.907974 24.982879 87.767157 8.569440 -42.754430 -122.041600 46.316868 -80.615358 27.381482 -17.071254 -23.766147 -131.229917 153.294832 -64.666891 -67.099433 -3.361925 0.315382 -0.877980 -2.499660 1.399450 -1.441050 -74.395809 38.777357 12.146915 112.549057 34.820270 -89.775084 -88.953003 21.090369 -3.876907 3.738991 3.395894 3.412550 0.254300 -0.471980 -0.396380 
-0.071460 20.967450 -17.295260 57.041176 -75.352861 -76.641125 -16.398001 11.612801 3.729284 7.457434 -4.476466 -4.205555 5.961571 41.162541 113.412619 6.592300 16.920848 -0.384241 2.201830 3.878270 1.261410 17.593710 -6.120989 5.937798 -25.443613 33.941655 -45.800175 20.145532 -36.911691 99.652805 -5.197112 -15.139884 0.407795 0.768740 -3.953330 -1.462070 0.869482 -13.689872 -9.734575 43.918628 -15.991993 119.851866 -11.455959 -1.928856 17.805416 16.066098 -16.784490 -11.364017 -66.314476 22.249883 93.155747 10.829030 -41.876560 -123.974600 -131.977711 -86.386130 -158.068600 -18.833942 -10.994186 -134.733517 158.314097 -65.702919 -61.229505 -6.027616 -0.425213 -1.086180 -2.310150 1.132430 -1.406020 -72.880976 46.853884 7.743232 117.843127 23.093722 -71.892648 -86.799028 -8.028454 4.167414 2.230873 1.568380 3.295910 0.176710 -0.315830 -0.355680 
-0.041360 21.051400 -17.485140 64.583531 -74.547307 -86.388127 -17.313137 11.506189 3.762690 12.400268 -2.422346 2.956273 0.672610 45.761208 107.233490 6.818589 16.941811 -0.150633 1.702110 3.369370 0.822930 16.807848 -6.047634 5.680821 -19.509003 37.599744 -40.659140 16.233393 -33.123812 102.645344 -4.925159 -14.726082 0.615431 0.465040 -3.724790 -1.438480 1.696132 -17.473581 -9.813670 46.919933 -15.466668 128.619981 -8.616036 -4.391959 7.720942 10.136947 -17.959330 -3.547763 -62.609193 20.058758 100.802815 12.768970 -39.254380 -127.914850 -126.529098 -79.499754 -161.184607 -19.035487 -9.277563 -141.691710 157.550236 -65.722747 -54.652065 -7.337901 -0.706907 -1.194522 -2.137970 0.893030 -1.442910 -72.032434 58.521457 6.152136 122.870035 14.218204 -54.902839 -79.619497 -34.867296 14.935361 2.331173 0.015845 3.151330 0.103540 -0.124720 -0.340710 
-0.012540 21.111240 -17.568220 74.147383 -72.188645 -98.602217 -18.334399 12.312840 3.632640 13.604883 1.204048 10.076744 -0.264420 45.756371 103.398080 6.888967 16.608765 0.107798 1.351190 2.912590 0.583100 15.798182 -5.872915 5.850104 -14.744118 40.043692 -35.224183 11.997510 -28.783563 106.012939 -4.582699 -14.179601 0.789387 0.237020 -3.521450 -1.389810 1.742172 -18.863773 -9.392520 47.402806 -16.675170 135.356135 -5.232610 -9.002777 4.217804 5.775670 -16.639341 -1.203155 -61.582643 18.714711 100.902279 12.440520 -39.254480 -125.557880 -120.179560 -83.667747 -162.938500 -17.122395 -12.472462 -147.448677 152.660517 -65.550114 -50.061999 -8.323328 -0.730232 -1.325220 -1.941820 0.640270 -1.496590 -70.332779 55.961700 14.677205 129.028393 12.552418 -74.196787 -85.548707 -7.037493 6.329173 2.718229 0.567316 3.026940 -0.017670 -0.009360 -0.360960 
